<svg xmlns="http://www.w3.org/2000/svg" width="512" height="512" viewBox="0 0 512 512">
<style>@media(prefers-color-scheme:dark){rect{fill:#000019}path{fill:#c2d04a}}</style>
<rect width="512" height="512" fill="#ffffe6"/>
<path fill="#3d2fb5" fill-rule="evenodd" d="M256.5 26.3C267.2 46.9 280.7 65.4 296.5 82.3C310.4 95.9 327.5 113.2 343.5 124.2C348.5 128.6 354.3 131.9 359.5 136C369.9 144.1 380.9 151.3 391.5 159.2C396 163 400.8 166.6 405.5 170.1C410 173.5 413.9 178 418.4 181.5C429.1 192.2 439.1 203.2 447.9 215.5C450.1 218.7 451.9 222.2 454.1 225.5C455.7 228.9 457.9 232 459.5 235.4C462.5 242 465.1 248.8 468 255.5C468.8 258.9 470.2 262.1 471 265.5C471.7 268.2 472 270.9 472.9 273.5C475 287.6 475.6 297.2 474.8 311.5C473.7 316.1 473.7 320.9 472.7 325.5C471.9 328.9 470.7 332.1 469.9 335.5C467.8 340 466.6 345 464.6 349.5C463 353 460.8 356.1 459.1 359.5C447.3 378.4 429.4 394.7 408.5 402.9C402.6 405.8 389.1 409.6 382.5 410.5C374.6 411.2 366.5 413 358.5 411.3C353.2 410.7 347.6 410.6 342.5 408.9C341.8 408.7 341.2 408.3 340.5 408.1C337.8 407.3 335.2 407 332.5 405.9C318.8 401.6 311.9 396.8 300.5 388.5C297.9 386.3 295.1 384 292.8 381.5C290 378.7 281.1 367.6 279.6 366.5C278.4 371.3 280.6 381.4 281.5 386.5C282.8 393.2 285.2 406.6 287.9 412.5C290.2 420.7 293.6 428.8 297.1 436.5C298 438.6 299.2 440.4 300.1 442.5C303.1 447 305.5 451.9 308.5 456.4C316.7 468.6 323.2 475.3 332.7 486L179.4 486C187.4 478 199.2 464.4 204.5 454.5C208.1 449.4 212.4 442.3 214.9 436.5C216.7 432.5 218.1 428.4 220.1 424.5C221.5 419.7 223.5 415.2 225 410.5C226.5 405.9 227 401 228.6 396.5C229.5 389.1 231.8 382 232.2 374.5C232.3 372.7 233.5 367.3 232.5 366.1C229.5 368.9 227.6 372.5 224.8 375.5C217.4 383.4 207.3 393.1 197.5 397.9C191.1 401.6 184.4 404.2 177.5 407C175.5 407.8 173.5 408 171.5 408.8C168.8 409.1 166.2 409.9 163.5 410.4C161.4 410.8 151.8 411.8 149.5 411.9C141.4 412 131.3 411.2 123.5 409C112.2 407.2 101.7 401.9 91.5 396.8C76.8 388.3 65.8 377.1 55.9 363.5C54.8 361.3 53.3 359.6 52.1 357.5C47.4 349.4 43.8 340.5 41.4 331.5C39.5 325.8 38.4 319.6 38 313.5C36.1 299.4 39.5 323.9 37.2 309.5C36.6 305.9 36.7 293.1 37.2 289.5C37.5 287.4 37.8 287.6 38 285.5C38.4 280.8 38.5 276.2 39.5 271.5C43.6 256.3 47.7 243.4 55.3 229.5C66.5 207.2 84.4 189.4 102.5 172.7C106.6 169.6 110.5 166.2 114.5 163C121.6 157.3 129.2 152.3 136.5 146.8C139.3 145.1 141.9 143.1 144.5 141.1C151 136.1 157.9 131.7 164.5 126.8C167.9 124.3 171.1 121.4 174.5 118.8C180.4 113.7 186.6 109 192.5 103.9C193.6 103 194.4 101.8 195.5 100.9C205.5 91.9 214.7 82.2 223.9 72.5C232.1 62.4 240 52.5 246.9 41.5C249 38 253.8 28.4 256.5 26.3ZM146.8 150L146.8 347L187 347L186.3 197.5L238.9 347L275.5 347L327.3 196.3L326.9 347L371 347L371 150L307.6 150L259.5 289.5L211.6 150L146.8 150Z"/>
</svg>
